# xmcd CD database file
#
# Track frame offsets:
#	150
#	13059
#	26176
#	40426
#	54135
#	59063
#	63574
#	68301
#	82822
#	90115
#	97897
#	111931
#	125315
#	134553
#	139991
#	149627
#	161005
#	171470
#	184574
#	191153
#	197100
#	202559
#	221717
#	236154
#	239880
#	242990
#	247196
#	253267
#	267224
#	280917
#	294412
#	308463
#	322979
#	335250
#
# Disc length: 4613 seconds
#
# Revision: 0
# Processed by: cddbd v1.4PL0 Copyright (c) Steve Scherf et al.
# Submitted via: CDex 1.50
#
DISCID=06120322
DTITLE=Huddie Ledbetter - Leadbelly
DYEAR=1973
DGENRE=Blues
TTITLE0=Fannin Street
TTITLE1=Frankie And Albert (Part 1)
TTITLE2=Frankie And Albert (Part 2)
TTITLE3=De Kalb Blues
TTITLE4=Looky, Looky, Yonder
TTITLE5=Black Betty
TTITLE6=Yellow Women's Door Bells
TTITLE7=The Bourgeois Blues
TTITLE8=Poor Howard
TTITLE9=Green Corn
TTITLE10=The Boll Weevil
TTITLE11=The Gallis Poll
TTITLE12=Ain't Goin' Down To The Well No Mo'
TTITLE13=Go Down, Old Hannah
TTITLE14=How Long Blues
TTITLE15=Goodnight, Irene
TTITLE16=Good Morning Blues
TTITLE17=Out On The Western Plains
TTITLE18=No Good Rider
TTITLE19=Big Fat Woman
TTITLE20=Bottle It Up And Go
TTITLE21=John Hardy (#1)
TTITLE22=John Hardy (#2)
TTITLE23=Bring Me A Li'l Water, Silvy
TTITLE24=Julie Ann Johnson
TTITLE25=Line 'Em
TTITLE26=Whoa Back Buck
TTITLE27=Roberta
TTITLE28=Bill Brady
TTITLE29=Where Did You Sleep Last Night?
TTITLE30=Yellow Gal
TTITLE31=In New Orleans
TTITLE32=Pretty Flowers In My Back Yard
TTITLE33=Pretty Flowers In My Back Yard (with Josh White)
EXTD=YEAR: 1973
EXTT0=
EXTT1=
EXTT2=
EXTT3=
EXTT4=
EXTT5=
EXTT6=
EXTT7=
EXTT8=
EXTT9=
EXTT10=
EXTT11=
EXTT12=
EXTT13=
EXTT14=
EXTT15=
EXTT16=
EXTT17=
EXTT18=
EXTT19=
EXTT20=
EXTT21=
EXTT22=
EXTT23=
EXTT24=
EXTT25=
EXTT26=
EXTT27=
EXTT28=
EXTT29=
EXTT30=
EXTT31=
EXTT32=
EXTT33=
PLAYORDER=
